<svg xmlns="http://www.w3.org/2000/svg" viewBox="0 0 32 32" width="32" height="32">
  <rect width="32" height="32" rx="8" fill="#03060f"/>
  <defs>
    <linearGradient id="fg" x1="0" y1="0" x2="32" y2="32" gradientUnits="userSpaceOnUse">
      <stop offset="0%" stop-color="#67e8f9"/>
      <stop offset="55%" stop-color="#38bdf8"/>
      <stop offset="100%" stop-color="#0ea5e9"/>
    </linearGradient>
  </defs>
  <path fill-rule="evenodd" clip-rule="evenodd"
    d="M3 2 L16 2 L16 5.5 L6.5 5.5 L6.5 12 L14.5 12 L14.5 15.5 L6.5 15.5 L6.5 22 L16 22 L16 25.5 L3 25.5 Z
       M16 2 L22.5 2 C26.5 2 29 4.5 29 8 C29 10.5 27.8 12.3 26 13.3 C27.8 14.3 29 16.3 29 19 C29 22.5 26.5 25.5 22.5 25.5 L16 25.5 L16 15.5 L22.5 15.5 C24 15.5 25 14.5 25 13 C25 11.5 24 10.5 22.5 10.5 L16 10.5 Z
       M16 5.5 L16 10.5 L22.5 10.5 C24 10.5 25 9.5 25 8 C25 6.5 24 5.5 22.5 5.5 Z"
    fill="url(#fg)"
    transform="scale(0.88) translate(1.8, 3)"
  />
</svg>
